HIERARCHY
ROOT Hips
{
	OFFSET 0.000000 0.000000 0.000000
	CHANNELS 6 Xposition Yposition Zposition Zrotation Yrotation Xrotation 
	JOINT LHipJoint
	{
		OFFSET 0.000000 0.000000 0.000000
		CHANNELS 3 Zrotation Yrotation Xrotation
		JOINT LeftUpLeg
		{
			OFFSET 1.363060 -1.794630 0.839290
			CHANNELS 3 Zrotation Yrotation Xrotation
			JOINT LeftLeg
			{
				OFFSET 2.448110 -6.726130 0.000000
				CHANNELS 3 Zrotation Yrotation Xrotation
				JOINT LeftFoot
				{
					OFFSET 2.562200 -7.039590 0.000000
					CHANNELS 3 Zrotation Yrotation Xrotation
					JOINT LeftToeBase
					{
						OFFSET 0.157640 -0.433110 2.322550
						CHANNELS 3 Zrotation Yrotation Xrotation
						End Site
						{
							OFFSET 0.000000 0.000000 0.000000
						}
					}
				}
			}
		}
	}
	JOINT RHipJoint
	{
		OFFSET 0.000000 0.000000 0.000000
		CHANNELS 3 Zrotation Yrotation Xrotation
		JOINT RightUpLeg
		{
			OFFSET -1.305520 -1.794630 0.839290
			CHANNELS 3 Zrotation Yrotation Xrotation
			JOINT RightLeg
			{
				OFFSET -2.542530 -6.985550 0.000000
				CHANNELS 3 Zrotation Yrotation Xrotation
				JOINT RightFoot
				{
					OFFSET -2.568260 -7.056230 0.000000
					CHANNELS 3 Zrotation Yrotation Xrotation
					JOINT RightToeBase
					{
						OFFSET -0.164730 -0.452590 2.363150
						CHANNELS 3 Zrotation Yrotation Xrotation
						End Site
						{
							OFFSET 0.000000 0.000000 0.000000
						}
					}
				}
			}
		}
	}
	JOINT LowerBack
	{
		OFFSET 0.000000 0.000000 0.000000
		CHANNELS 3 Zrotation Yrotation Xrotation
		JOINT Spine
		{
			OFFSET 0.028270 2.035590 -0.193380
			CHANNELS 3 Zrotation Yrotation Xrotation
			JOINT Spine1
			{
				OFFSET 0.056720 2.048850 -0.042750
				CHANNELS 3 Zrotation Yrotation Xrotation
				JOINT Neck
				{
					OFFSET 0.000000 0.000000 0.000000
					CHANNELS 3 Zrotation Yrotation Xrotation
					JOINT Neck1
					{
						OFFSET -0.054170 1.746240 0.172020
						CHANNELS 3 Zrotation Yrotation Xrotation
						JOINT Head
						{
							OFFSET 0.104070 1.761360 -0.123970
							CHANNELS 3 Zrotation Yrotation Xrotation
							End Site
							{
								OFFSET 0.000000 0.000000 0.000000
							}
						}
					}
				}
				JOINT LeftShoulder
				{
					OFFSET 0.000000 0.000000 0.000000
					CHANNELS 3 Zrotation Yrotation Xrotation
					JOINT LeftArm
					{
						OFFSET 3.362410 1.200890 -0.311210
						CHANNELS 3 Zrotation Yrotation Xrotation
						JOINT LeftForeArm
						{
							OFFSET 4.983000 -0.000000 -0.000000
							CHANNELS 3 Zrotation Yrotation Xrotation
							JOINT LeftHand
							{
								OFFSET 3.483560 -0.000000 -0.000000
								CHANNELS 3 Zrotation Yrotation Xrotation
								JOINT LeftFingerBase
								{
									OFFSET 0.000000 0.000000 0.000000
									CHANNELS 3 Zrotation Yrotation Xrotation
									JOINT LeftHandIndex1
									{
										OFFSET 0.715260 -0.000000 -0.000000
										CHANNELS 3 Zrotation Yrotation Xrotation
										End Site
										{
											OFFSET 0.000000 0.000000 0.000000
										}
									}
								}
								JOINT LThumb
								{
									OFFSET 0.000000 0.000000 0.000000
									CHANNELS 3 Zrotation Yrotation Xrotation
									End Site
									{
										OFFSET 0.000000 0.000000 0.000000
									}
								}
							}
						}
					}
				}
				JOINT RightShoulder
				{
					OFFSET 0.000000 0.000000 0.000000
					CHANNELS 3 Zrotation Yrotation Xrotation
					JOINT RightArm
					{
						OFFSET -3.136600 1.374050 -0.404650
						CHANNELS 3 Zrotation Yrotation Xrotation
						JOINT RightForeArm
						{
							OFFSET -5.241900 -0.000000 -0.000000
							CHANNELS 3 Zrotation Yrotation Xrotation
							JOINT RightHand
							{
								OFFSET -3.444170 -0.000000 -0.000000
								CHANNELS 3 Zrotation Yrotation Xrotation
								JOINT RightFingerBase
								{
									OFFSET 0.000000 0.000000 0.000000
									CHANNELS 3 Zrotation Yrotation Xrotation
									JOINT RightHandIndex1
									{
										OFFSET -0.622530 -0.000000 -0.000000
										CHANNELS 3 Zrotation Yrotation Xrotation
										End Site
										{
											OFFSET 0.000000 0.000000 0.000000
										}
									}
								}
								JOINT RThumb
								{
									OFFSET 0.000000 0.000000 0.000000
									CHANNELS 3 Zrotation Yrotation Xrotation
									End Site
									{
										OFFSET 0.000000 0.000000 0.000000
									}
								}
							}
						}
					}
				}
			}
		}
	}
}
MOTION
Frames: 7
Frame Time: 0.008333
-12.768434 16.993017 0.207715 -46.165166 88.197175 -35.543890 -11.047049 3.362454 0.280157 -6.992304 0.071156 3.567178 -0.991705 1.433931 24.903775 0.526076 2.510327 -0.308315 0.310700 0.000000 -70.493000 8.065708 -0.953868 3.537754 8.210112 7.980436 -29.593371 2.895337 0.036147 6.758566 0.354255 0.849521 9.684242 -0.428400 0.000000 -34.695999 4.361256 -2.985304 -3.432069 0.126658 -3.508408 -3.350175 -7.255010 -3.548757 1.185943 9.227177 -7.884794 -6.369884 -4.374471 -0.347335 0.331633 0.000000 0.000000 0.000000 -5.802554 4.343104 1.570858 -57.866299 -11.380264 13.809992 -3.144175 -34.998055 -0.008992 4.674195 2.328685 0.095374 -0.120176 0.074288 0.000000 0.000000 0.000000 0.000000 0.000000 0.000000 0.000000 18.803908 -7.349421 0.681870 61.044084 -4.040168 -21.163045 4.264276 8.356860 0.011246 -1.103985 5.314385 -0.057462 0.127147 -0.052344 -0.000000 0.000000 0.000000 0.000000 0.000000 0.000000 0.000000 
-12.606958 17.020495 0.224440 -51.074023 88.005639 -40.486582 -11.249096 3.406710 0.230385 -6.443507 0.511877 2.531981 -0.765457 1.619209 27.248868 0.546424 2.499117 1.672912 0.370599 -0.000000 -71.603000 7.938913 -1.058947 3.572009 8.601533 8.322738 -29.041865 2.913036 0.013549 7.172514 0.307800 0.602162 9.143613 -0.508000 0.000000 -33.234300 4.627287 -2.935781 -3.456658 0.171646 -3.480618 -3.372244 -7.241100 -3.522620 1.158582 9.219949 -7.681005 -6.382045 -4.384416 -0.348367 0.329584 0.000000 0.000000 0.000000 -5.790779 4.543872 1.550343 -58.683342 -10.476590 13.586369 -3.144164 -34.088892 -0.008723 4.666735 2.437101 0.099817 -0.115839 0.069202 0.000000 0.000000 0.000000 0.000000 0.000000 0.000000 0.000000 18.788657 -7.079352 0.685286 61.285752 -3.559584 -20.849055 4.263022 8.337123 0.011134 -1.119837 5.297128 -0.057955 0.126488 -0.053000 -0.000000 0.000000 0.000000 0.000000 0.000000 0.000000 0.000000 
-12.447890 17.047612 0.243280 -54.341463 87.825867 -43.778970 -11.427456 3.444138 0.176879 -5.964703 1.011729 1.367056 -0.535525 1.791308 29.691654 0.595375 2.557852 3.778636 0.428900 0.000001 -71.842700 7.847941 -1.144611 3.601265 8.956153 8.591710 -28.455659 2.931746 0.005382 7.486064 0.263345 0.381203 8.547449 -0.574500 0.000000 -31.660600 4.832478 -2.884191 -3.474474 0.203820 -3.446053 -3.392030 -7.235276 -3.490025 1.130566 9.231703 -7.467086 -6.394405 -4.395824 -0.349485 0.327274 0.000000 0.000000 0.000000 -5.754048 4.745614 1.538175 -59.443891 -9.574023 13.383384 -3.143150 -33.229903 -0.008447 4.615557 2.571382 0.104363 -0.111621 0.064182 0.000000 0.000000 0.000000 0.000000 0.000000 0.000000 0.000000 18.800481 -6.789992 0.690775 61.566707 -3.059393 -20.503384 4.257643 8.353430 0.011020 -1.118277 5.283898 -0.057747 0.125542 -0.053729 -0.000000 0.000000 0.000000 0.000000 0.000000 0.000000 0.000000 
-12.291213 17.074031 0.263104 -57.179388 87.657148 -46.636044 -11.596012 3.463649 0.115886 -5.515532 1.581295 0.078041 -0.302558 1.945162 32.222330 0.677415 2.727563 5.941976 0.498100 0.000001 -71.154400 7.773953 -1.220476 3.628263 9.306895 8.801201 -27.819114 2.957126 0.014613 7.666416 0.221245 0.179008 7.927274 -0.631300 -0.000001 -29.965200 5.011277 -2.831638 -3.484140 0.230048 -3.408170 -3.409801 -7.235418 -3.454175 1.102529 9.250956 -7.247441 -6.407084 -4.407776 -0.350609 0.324738 0.000000 0.000000 0.000000 -5.713169 4.948211 1.533879 -60.145028 -8.686000 13.221949 -3.141689 -32.422983 -0.008164 4.516776 2.727096 0.108513 -0.107607 0.059294 0.000000 0.000000 0.000000 0.000000 0.000000 0.000000 0.000000 18.823222 -6.487747 0.698154 61.881368 -2.538883 -20.116130 4.249348 8.408433 0.010914 -1.102526 5.275774 -0.056839 0.124388 -0.054550 -0.000000 0.000000 0.000000 0.000000 0.000000 0.000000 0.000000 
-12.136930 17.099461 0.283569 -59.934336 87.505374 -49.405615 -11.753494 3.459378 0.049630 -5.105539 2.195897 -1.315776 -0.072212 2.077656 34.815246 0.797184 3.088629 8.081855 0.608300 0.000001 -69.497300 7.714118 -1.289026 3.651157 9.656498 8.936999 -27.140235 2.990566 0.040006 7.715911 0.185268 0.016672 7.305225 -0.672500 0.000001 -28.251500 5.166291 -2.778597 -3.486304 0.250811 -3.367602 -3.425766 -7.240978 -3.415641 1.074063 9.275137 -7.029293 -6.419211 -4.420364 -0.351761 0.322258 0.000000 0.000000 0.000000 -5.673769 5.140984 1.536490 -60.782360 -7.809855 13.111229 -3.140021 -31.676580 -0.007876 4.366864 2.902217 0.111968 -0.103823 0.054517 0.000000 0.000000 0.000000 0.000000 0.000000 0.000000 0.000000 18.855346 -6.181505 0.707467 62.224082 -1.998511 -19.674119 4.238350 8.505216 0.010814 -1.074554 5.272868 -0.055427 0.123054 -0.055451 -0.000000 0.000000 0.000000 0.000000 0.000000 0.000000 0.000000 
-11.984974 17.123708 0.304337 -62.859891 87.372130 -52.343854 -11.899437 3.426940 -0.020674 -4.739852 2.833567 -2.793556 0.149107 2.188255 37.445575 0.955034 3.713230 10.104972 0.798800 -0.000000 -66.886700 7.664934 -1.353012 3.667884 10.009357 8.988985 -26.426996 3.032989 0.079551 7.644360 0.158432 -0.089859 6.700352 -0.695100 0.000001 -26.614700 5.302809 -2.725139 -3.480188 0.267144 -3.324715 -3.439792 -7.251152 -3.374706 1.045223 9.301198 -6.815970 -6.430035 -4.433504 -0.352940 0.320034 0.000000 0.000000 0.000000 -5.642551 5.321888 1.545050 -61.353489 -6.951968 13.063921 -3.138596 -30.991483 -0.007588 4.167076 3.093447 0.114124 -0.100318 0.049850 0.000000 0.000000 0.000000 0.000000 0.000000 0.000000 0.000000 18.893822 -5.875835 0.718099 62.589793 -1.440592 -19.173785 4.225041 8.646381 0.010727 -1.034143 5.275985 -0.053517 0.121563 -0.056430 -0.000000 0.000000 0.000000 0.000000 0.000000 0.000000 0.000000 
-11.835320 17.146632 0.325038 -66.111440 87.255848 -55.609047 -12.033606 3.364156 -0.094160 -4.422794 3.473876 -4.334754 0.355453 2.278973 40.087614 1.147779 4.656811 11.915344 1.109500 -0.000000 -63.416700 7.623162 -1.414746 3.676353 10.367543 8.951147 -25.689339 3.084383 0.130519 7.469175 0.142712 -0.130585 6.126700 -0.697900 0.000000 -25.140000 5.424533 -2.671081 -3.464425 0.279757 -3.279476 -3.451673 -7.265179 -3.331268 1.015880 9.326895 -6.610068 -6.438797 -4.447115 -0.354143 0.318255 0.000000 0.000000 0.000000 -5.624052 5.489342 1.558401 -61.858898 -6.117548 13.085950 -3.137559 -30.367109 -0.007312 3.922586 3.295787 0.114785 -0.097114 0.045295 0.000000 0.000000 0.000000 0.000000 0.000000 0.000000 0.000000 18.936320 -5.574467 0.729519 62.972495 -0.867509 -18.611451 4.209784 8.833449 0.010655 -0.981665 5.285529 -0.051106 0.119939 -0.057481 -0.000000 0.000000 0.000000 0.000000 0.000000 0.000000 0.000000 
